<svg width="37" height="37" viewBox="0 0 37 37" fill="none" xmlns="http://www.w3.org/2000/svg">
<path d="M35.5781 12.8047C35.9062 13.1328 36.0703 13.5312 36.0703 14C36.0703 14.4688 35.9062 14.8672 35.5781 15.1953L14.7656 36.0078C14.4375 36.3359 14.0391 36.5 13.5703 36.5C13.1016 36.5 12.7031 36.3359 12.375 36.0078L0.5625 24.1953C0.234375 23.8672 0.0703125 23.4688 0.0703125 23C0.0703125 22.5312 0.234375 22.1328 0.5625 21.8047L3.375 18.9922C3.70312 18.6641 4.10156 18.5 4.57031 18.5C5.03906 18.5 5.4375 18.6641 5.76562 18.9922L13.5703 26.8672L30.4453 9.99219C30.7266 9.66406 31.1016 9.5 31.5703 9.5C32.0391 9.5 32.4375 9.66406 32.7656 9.99219L35.5781 12.8047ZM12.7969 20.2578L4.92188 12.3828C4.35938 11.8203 4.35938 11.2812 4.92188 10.7656L8.08594 7.60156C8.32031 7.36719 8.57812 7.25 8.85938 7.25C9.1875 7.25 9.46875 7.36719 9.70312 7.60156L13.5703 11.4688L24.2578 0.851562C24.4453 0.617188 24.6797 0.5 24.9609 0.5C25.2891 0.5 25.5703 0.617188 25.8047 0.851562L28.9688 4.01562C29.5312 4.53125 29.5312 5.07031 28.9688 5.63281L14.3438 20.2578C14.1562 20.4922 13.8984 20.6094 13.5703 20.6094C13.2422 20.6094 12.9844 20.4922 12.7969 20.2578Z" fill="#4A4A4A"/>
</svg>
