<svg width="32" height="37" viewBox="0 0 32 37" fill="none" xmlns="http://www.w3.org/2000/svg">
<path d="M0.25 33.125V14H31.75V33.125C31.75 34.0625 31.4219 34.8594 30.7656 35.5156C30.1094 36.1719 29.3125 36.5 28.375 36.5H3.625C2.6875 36.5 1.89062 36.1719 1.23438 35.5156C0.578125 34.8594 0.25 34.0625 0.25 33.125ZM22.75 19.3438V22.1562C22.75 22.7188 23.0312 23 23.5938 23H26.4062C26.9688 23 27.25 22.7188 27.25 22.1562V19.3438C27.25 18.7812 26.9688 18.5 26.4062 18.5H23.5938C23.0312 18.5 22.75 18.7812 22.75 19.3438ZM22.75 28.3438V31.1562C22.75 31.7188 23.0312 32 23.5938 32H26.4062C26.9688 32 27.25 31.7188 27.25 31.1562V28.3438C27.25 27.7812 26.9688 27.5 26.4062 27.5H23.5938C23.0312 27.5 22.75 27.7812 22.75 28.3438ZM13.75 19.3438V22.1562C13.75 22.7188 14.0312 23 14.5938 23H17.4062C17.9688 23 18.25 22.7188 18.25 22.1562V19.3438C18.25 18.7812 17.9688 18.5 17.4062 18.5H14.5938C14.0312 18.5 13.75 18.7812 13.75 19.3438ZM13.75 28.3438V31.1562C13.75 31.7188 14.0312 32 14.5938 32H17.4062C17.9688 32 18.25 31.7188 18.25 31.1562V28.3438C18.25 27.7812 17.9688 27.5 17.4062 27.5H14.5938C14.0312 27.5 13.75 27.7812 13.75 28.3438ZM4.75 19.3438V22.1562C4.75 22.7188 5.03125 23 5.59375 23H8.40625C8.96875 23 9.25 22.7188 9.25 22.1562V19.3438C9.25 18.7812 8.96875 18.5 8.40625 18.5H5.59375C5.03125 18.5 4.75 18.7812 4.75 19.3438ZM4.75 28.3438V31.1562C4.75 31.7188 5.03125 32 5.59375 32H8.40625C8.96875 32 9.25 31.7188 9.25 31.1562V28.3438C9.25 27.7812 8.96875 27.5 8.40625 27.5H5.59375C5.03125 27.5 4.75 27.7812 4.75 28.3438ZM28.375 5C29.3125 5 30.1094 5.32813 30.7656 5.98438C31.4219 6.64062 31.75 7.4375 31.75 8.375V11.75H0.25V8.375C0.25 7.4375 0.578125 6.64062 1.23438 5.98438C1.89062 5.32813 2.6875 5 3.625 5H7V1.625C7 1.29687 7.09375 1.03906 7.28125 0.851562C7.51562 0.617188 7.79688 0.5 8.125 0.5H10.375C10.7031 0.5 10.9609 0.617188 11.1484 0.851562C11.3828 1.03906 11.5 1.29687 11.5 1.625V5H20.5V1.625C20.5 1.29687 20.5938 1.03906 20.7812 0.851562C21.0156 0.617188 21.2969 0.5 21.625 0.5H23.875C24.2031 0.5 24.4609 0.617188 24.6484 0.851562C24.8828 1.03906 25 1.29687 25 1.625V5H28.375Z" fill="#4A4A4A"/>
</svg>
