<svg width="37" height="27" viewBox="0 0 37 27" fill="none" xmlns="http://www.w3.org/2000/svg">
<path d="M35.2266 7.875C35.5078 7.875 35.7188 7.99219 35.8594 8.22656C36.0469 8.41406 36.1172 8.64844 36.0703 8.92969L35.6484 10.6172C35.5078 11.0391 35.2266 11.25 34.8047 11.25H33.3984C34.4297 12.1406 34.9453 13.2656 34.9453 14.625V18C34.9453 19.125 34.5703 20.1094 33.8203 20.9531V24.75C33.8203 25.3594 33.5859 25.8984 33.1172 26.3672C32.6953 26.7891 32.1797 27 31.5703 27H29.3203C28.7109 27 28.1719 26.7891 27.7031 26.3672C27.2812 25.8984 27.0703 25.3594 27.0703 24.75V22.5H9.07031V24.75C9.07031 25.3594 8.83594 25.8984 8.36719 26.3672C7.94531 26.7891 7.42969 27 6.82031 27H4.57031C3.96094 27 3.42188 26.7891 2.95312 26.3672C2.53125 25.8984 2.32031 25.3594 2.32031 24.75V20.9531C1.57031 20.1094 1.19531 19.125 1.19531 18V14.625C1.19531 13.2656 1.71094 12.1406 2.74219 11.25H1.33594C0.914062 11.25 0.632812 11.0391 0.492188 10.6172L0.0703125 8.92969C0.0234375 8.64844 0.0703125 8.41406 0.210938 8.22656C0.398438 7.99219 0.632812 7.875 0.914062 7.875H5.13281L6.32812 4.92188C6.60938 4.21875 6.98438 3.5625 7.45312 2.95312C7.96875 2.29688 8.53125 1.75781 9.14062 1.33594C9.79688 0.914062 10.5 0.585937 11.25 0.351562C12 0.117188 12.7734 0 13.5703 0H22.5703C24.1641 0 25.6172 0.445312 26.9297 1.33594C28.2891 2.22656 29.25 3.42188 29.8125 4.92188L31.0078 7.875H35.2266ZM10.4766 6.60938L9.07031 10.125H27.0703L25.6641 6.60938C25.4297 6 25.0078 5.50781 24.3984 5.13281C23.8359 4.71094 23.2266 4.5 22.5703 4.5H13.5703C12.9141 4.5 12.2812 4.71094 11.6719 5.13281C11.1094 5.50781 10.7109 6 10.4766 6.60938ZM6.82031 18C6.91406 18 7.10156 18 7.38281 18C7.71094 18 7.94531 18 8.08594 18C8.22656 18 8.41406 18 8.64844 18C8.92969 17.9531 9.14062 17.9062 9.28125 17.8594C9.42188 17.8125 9.5625 17.7656 9.70312 17.7188C9.89062 17.625 10.0078 17.5078 10.0547 17.3672C10.1484 17.2266 10.1953 17.0625 10.1953 16.875C10.1953 16.1719 9.79688 15.4453 9 14.6953C8.20312 13.8984 7.47656 13.5 6.82031 13.5C6.16406 13.5 5.625 13.7109 5.20312 14.1328C4.78125 14.5547 4.57031 15.0938 4.57031 15.75C4.57031 16.4062 4.78125 16.9453 5.20312 17.3672C5.625 17.7891 6.16406 18 6.82031 18ZM29.3203 18C29.9766 18 30.5156 17.7891 30.9375 17.3672C31.3594 16.9453 31.5703 16.4062 31.5703 15.75C31.5703 15.0938 31.3594 14.5547 30.9375 14.1328C30.5156 13.7109 29.9766 13.5 29.3203 13.5C28.8984 13.5 28.4062 13.6875 27.8438 14.0625C27.3281 14.4375 26.8828 14.9062 26.5078 15.4688C26.1328 15.9844 25.9453 16.4531 25.9453 16.875C25.9453 17.0625 25.9688 17.2266 26.0156 17.3672C26.1094 17.5078 26.2266 17.625 26.3672 17.7188C26.5547 17.7656 26.7188 17.8125 26.8594 17.8594C27 17.9062 27.1875 17.9531 27.4219 18C27.7031 18 27.9141 18 28.0547 18C28.1953 18 28.4062 18 28.6875 18C29.0156 18 29.2266 18 29.3203 18Z" fill="#4A4A4A"/>
</svg>
