<svg width="46" height="37" viewBox="0 0 46 37" fill="none" xmlns="http://www.w3.org/2000/svg">
<path d="M10.125 16.0391L9.28125 19.2734C9.04688 20.0234 8.97656 20.8438 9.07031 21.7344L6.60938 23.7734C6.375 23.9609 6.11719 23.9844 5.83594 23.8438C5.60156 23.6562 5.53125 23.4219 5.625 23.1406L6.67969 17.7266C6.77344 17.2578 6.58594 17 6.11719 16.9531L0.632812 16.4609C0.351562 16.4141 0.164062 16.25 0.0703125 15.9688C0.0234375 15.6875 0.117188 15.4531 0.351562 15.2656L4.92188 12.2422C5.34375 11.9609 5.39062 11.6563 5.0625 11.3281L1.54688 7.03906C1.35938 6.80469 1.33594 6.57031 1.47656 6.33594C1.66406 6.05469 1.89844 5.96094 2.17969 6.05469L7.59375 7.10938C8.0625 7.20312 8.32031 7.01563 8.36719 6.54688L8.85938 1.0625C8.90625 0.78125 9.07031 0.617188 9.35156 0.570312C9.63281 0.476563 9.86719 0.546875 10.0547 0.78125L13.0781 5.35156C13.3594 5.77344 13.6641 5.82031 13.9922 5.49219L18.2812 1.97656C18.5156 1.78906 18.75 1.78906 18.9844 1.97656C19.2656 2.11719 19.3594 2.32812 19.2656 2.60938L18.4922 6.54688C18.2578 6.875 18.0703 7.10938 17.9297 7.25L15.6797 10.2734L14.9062 11.2578C13.7812 11.5859 12.7734 12.1719 11.8828 13.0156C11.0391 13.8594 10.4531 14.8672 10.125 16.0391ZM44.9297 25.3203L44.0156 28.625C43.8281 29.4219 43.4297 30.1016 42.8203 30.6641C42.6328 30.8516 42.4219 31.0156 42.1875 31.1562L41.2031 34.8125C41.1094 35.1406 40.9688 35.4219 40.7812 35.6562C40.1719 36.4062 39.3984 36.6641 38.4609 36.4297L36.2812 35.8672C35.6719 35.6797 35.2031 35.3047 34.875 34.7422C34.5938 34.2266 34.5234 33.6641 34.6641 33.0547L35.2969 30.9453L17.8594 26.2344L17.2969 28.4141C17.1562 29.0234 16.8047 29.4922 16.2422 29.8203C15.7266 30.1016 15.1641 30.1719 14.5547 30.0312L12.375 29.4688C11.3906 29.1875 10.8516 28.5547 10.7578 27.5703C10.7109 27.2891 10.7109 26.9844 10.7578 26.6562L11.7422 23C11.6484 22.7656 11.5547 22.5312 11.4609 22.2969C11.2266 21.4531 11.2266 20.6328 11.4609 19.8359L12.3047 16.6016C12.6797 15.1953 13.5469 14.2109 14.9062 13.6484C15.3281 13.4609 15.7734 13.3438 16.2422 13.2969L17.5078 11.6094L19.7578 8.58594C19.9922 8.25781 20.25 7.95312 20.5312 7.67188C21.0938 7.10938 21.7266 6.66406 22.4297 6.33594C22.7578 6.14844 23.1094 5.98438 23.4844 5.84375C24.1875 5.60938 24.9375 5.46875 25.7344 5.42188C26.5312 5.375 27.3047 5.46875 28.0547 5.70312L36.7031 8.02344C37.5 8.21094 38.2266 8.51562 38.8828 8.9375C39.8672 9.59375 40.6875 10.4141 41.3438 11.3984C41.9531 12.3828 42.3281 13.4844 42.4688 14.7031L42.9609 18.4297L43.1719 20.5391C43.9219 21.1016 44.4609 21.8047 44.7891 22.6484C45.1172 23.5391 45.1641 24.4297 44.9297 25.3203ZM18.0703 16.9531C17.7422 16.8594 17.4141 16.8359 17.0859 16.8828C16.8047 16.9297 16.5469 17.0234 16.3125 17.1641C16.0781 17.3047 15.8672 17.4922 15.6797 17.7266C15.4922 17.9609 15.3516 18.2422 15.2578 18.5703C15.1641 18.9922 15.1641 19.3906 15.2578 19.7656C15.3516 20.1406 15.5391 20.4688 15.8203 20.75C16.1016 20.9844 16.4531 21.1719 16.875 21.3125C16.9688 21.3594 17.1562 21.4297 17.4375 21.5234C17.7188 21.5703 17.9297 21.6172 18.0703 21.6641C18.2578 21.7109 18.4688 21.7578 18.7031 21.8047C18.9375 21.8516 19.125 21.875 19.2656 21.875C19.4531 21.8281 19.6172 21.8047 19.7578 21.8047C19.9453 21.7578 20.0859 21.6875 20.1797 21.5938C20.3203 21.4531 20.4141 21.2891 20.4609 21.1016C20.6016 20.4453 20.3906 19.6484 19.8281 18.7109C19.2656 17.7266 18.6797 17.1406 18.0703 16.9531ZM38.4609 18.9922L38.0391 15.1953C37.9922 14.8672 37.8984 14.5391 37.7578 14.2109C37.3359 13.2266 36.6094 12.6172 35.5781 12.3828L26.9297 10.0625C26.6484 9.96875 26.3438 9.92188 26.0156 9.92188C25.5938 9.92188 25.1016 10.0625 24.5391 10.3438C24.0234 10.5781 23.625 10.8828 23.3438 11.2578L21.0938 14.2812L33.1875 17.5156L38.4609 18.9922ZM41.2031 23.8438C40.9219 23.3281 40.4531 22.9766 39.7969 22.7891C39.1406 22.6016 38.3203 22.7891 37.3359 23.3516C36.3984 23.9141 35.8359 24.5234 35.6484 25.1797C35.6953 25.3672 35.6953 25.5312 35.6484 25.6719C35.6016 25.8125 35.6719 25.9531 35.8594 26.0938C36.0469 26.2344 36.1641 26.3516 36.2109 26.4453C36.3047 26.4922 36.4922 26.5625 36.7734 26.6562C37.0547 26.75 37.2422 26.8203 37.3359 26.8672C37.4766 26.8672 37.6875 26.9141 37.9688 27.0078C38.2969 27.0547 38.5078 27.1016 38.6016 27.1484C38.9297 27.2422 39.2344 27.2656 39.5156 27.2188C39.8438 27.1719 40.125 27.0781 40.3594 26.9375C40.5938 26.7969 40.8047 26.6094 40.9922 26.375C41.1797 26.1406 41.2969 25.8594 41.3438 25.5312C41.5312 24.875 41.4844 24.3125 41.2031 23.8438Z" fill="#4A4A4A"/>
</svg>
