<svg width="41" height="37" viewBox="0 0 41 37" fill="none" xmlns="http://www.w3.org/2000/svg">
<path d="M15.5781 30.3125C15.8594 30.8281 16.2344 31.25 16.7031 31.5781C17.1719 31.8594 17.6875 32 18.25 32H27.25V34.8125C27.25 35.2812 27.0859 35.6797 26.7578 36.0078C26.4297 36.3359 26.0312 36.5 25.5625 36.5H1.9375C1.46875 36.5 1.07031 36.3359 0.742188 36.0078C0.414063 35.6797 0.25 35.2812 0.25 34.8125V2.1875C0.25 1.71875 0.414063 1.32031 0.742188 0.992188C1.07031 0.664062 1.46875 0.5 1.9375 0.5H16V10.0625C16 10.5313 16.1641 10.9297 16.4922 11.2578C16.8203 11.5859 17.2188 11.75 17.6875 11.75H27.25V15.0547L18.25 23.9844V29.75C17.9688 29.7031 17.7578 29.5625 17.6172 29.3281C17.1953 28.4844 16.4688 27.9688 15.4375 27.7812C14.4531 27.5469 13.6328 27.7109 12.9766 28.2734L11.9922 25.3906C11.7109 24.5938 11.1719 24.1953 10.375 24.1953C9.57812 24.1953 9.03906 24.5938 8.75781 25.3906L7.49219 29.1875C7.35156 29.5625 7.09375 29.75 6.71875 29.75H5.875C5.54688 29.75 5.26562 29.8672 5.03125 30.1016C4.84375 30.2891 4.75 30.5469 4.75 30.875C4.75 31.2031 4.84375 31.4844 5.03125 31.7188C5.26562 31.9062 5.54688 32 5.875 32H6.71875C7.375 32 7.96094 31.8125 8.47656 31.4375C9.03906 31.0625 9.41406 30.5469 9.60156 29.8906L10.375 27.7109L11.5703 31.2266C11.7109 31.6953 12.0391 31.9531 12.5547 32C13.0703 32.0469 13.4219 31.8359 13.6094 31.3672L14.1719 30.3125C14.3125 30.0312 14.5469 29.8906 14.875 29.8906C15.2031 29.8906 15.4375 30.0312 15.5781 30.3125ZM27.25 9.07812V9.5H18.25V0.5H18.6719C19.1406 0.5 19.5391 0.664062 19.8672 0.992188L26.7578 7.88281C27.0859 8.21094 27.25 8.60937 27.25 9.07812ZM20.5 24.8984L31.9609 13.5078L36.7422 18.2891L25.3516 29.75H20.5V24.8984ZM40.2578 12.2422C40.5859 12.6172 40.75 13.0625 40.75 13.5781C40.75 14.0469 40.5859 14.4453 40.2578 14.7734L38.2891 16.7422L33.5078 11.9609L35.4766 9.99219C35.8047 9.66406 36.2031 9.5 36.6719 9.5C37.1875 9.5 37.6328 9.66406 38.0078 9.99219L40.2578 12.2422Z" fill="#4A4A4A"/>
</svg>
