<svg width="214" height="51" viewBox="0 0 214 51" fill="none" xmlns="http://www.w3.org/2000/svg">
<g clip-path="url(#clip0)">
<path d="M40.15 20.08C40.15 24.0519 38.9721 27.9345 36.7652 31.2369C34.5584 34.5392 31.4217 37.1129 27.752 38.6325C24.0822 40.152 20.0443 40.549 16.1489 39.7734C12.2535 38.9978 8.6756 37.0844 5.86776 34.2752C3.05992 31.4659 1.14827 27.8871 0.374612 23.9913C-0.399049 20.0955 2.87294e-05 16.0578 1.52137 12.3888C3.04271 8.71982 5.61797 5.58445 8.92143 3.37923C12.2249 1.17401 16.1081 -0.00197553 20.08 2.49119e-06C25.4038 0.00265379 30.5087 2.11939 34.2722 5.88483C38.0358 9.65028 40.15 14.7562 40.15 20.08Z" fill="#FC1F24"/>
<path d="M35.08 20.08C35.08 23.0467 34.2003 25.9468 32.5521 28.4135C30.9038 30.8802 28.5612 32.8028 25.8203 33.9382C23.0794 35.0735 20.0634 35.3705 17.1537 34.7917C14.244 34.213 11.5712 32.7843 9.47342 30.6866C7.37563 28.5888 5.94702 25.916 5.36824 23.0063C4.78947 20.0966 5.08652 17.0806 6.22183 14.3397C7.35715 11.5988 9.27973 9.25613 11.7465 7.60791C14.2132 5.95969 17.1133 5.07996 20.08 5.07996C22.0499 5.07996 24.0004 5.46794 25.8203 6.22176C27.6402 6.97558 29.2937 8.08048 30.6866 9.47335C32.0795 10.8662 33.1844 12.5198 33.9382 14.3397C34.692 16.1596 35.08 18.1101 35.08 20.08Z" fill="#FED837"/>
<path d="M28.46 20.0799C28.46 21.7393 27.9679 23.3614 27.046 24.7412C26.1241 26.1209 24.8138 27.1963 23.2807 27.8313C21.7476 28.4663 20.0607 28.6325 18.4332 28.3087C16.8057 27.985 15.3107 27.1859 14.1374 26.0126C12.964 24.8392 12.1649 23.3443 11.8412 21.7168C11.5175 20.0892 11.6836 18.4023 12.3186 16.8692C12.9537 15.3362 14.029 14.0258 15.4088 13.1039C16.7885 12.182 18.4106 11.6899 20.07 11.6899C21.1705 11.6899 22.2602 11.9067 23.2769 12.3278C24.2936 12.749 25.2174 13.3662 25.9956 14.1444C26.7737 14.9225 27.391 15.8463 27.8121 16.8631C28.2332 17.8798 28.45 18.9695 28.45 20.0699" fill="#FC1F24"/>
<path d="M55.27 30.62C53.3086 30.6294 51.3557 30.36 49.47 29.82C49.19 29.74 48.93 29.57 48.93 29.29V27.06C48.9273 26.9317 48.975 26.8075 49.0629 26.714C49.1508 26.6205 49.2718 26.5652 49.4 26.56H49.5C51.5 26.72 53.56 26.81 55.08 26.81C57.08 26.81 57.85 25.97 57.85 24.42V23.92C57.85 22.66 57.41 21.51 55.58 21.51H50.65C50.5068 21.51 50.3695 21.4531 50.2682 21.3519C50.1669 21.2506 50.11 21.1132 50.11 20.97V18.56C50.1073 18.4238 50.1582 18.2919 50.2517 18.1928C50.3452 18.0937 50.4739 18.0352 50.61 18.03H55.46C55.7863 18.0623 56.1155 18.0209 56.4236 17.9089C56.7317 17.797 57.0107 17.6173 57.2401 17.3831C57.4695 17.1489 57.6434 16.8662 57.7489 16.5559C57.8545 16.2456 57.8891 15.9155 57.85 15.59V15.18C57.85 13.92 57.26 13.08 55.07 13.08C53.2254 13.0983 51.383 13.2118 49.55 13.42H49.49C49.3719 13.4192 49.2579 13.3765 49.1682 13.2997C49.0785 13.2228 49.0189 13.1166 49 13V10.68C49 10.4 49.28 10.23 49.56 10.15C51.418 9.58353 53.3477 9.28716 55.29 9.27002C59.86 9.27002 62.61 10.82 62.61 15.02V15.43C62.5805 16.2961 62.3367 17.1412 61.9004 17.8899C61.4641 18.6386 60.849 19.2674 60.11 19.72C60.8748 20.1225 61.5133 20.7289 61.9545 21.472C62.3958 22.2151 62.6227 23.0659 62.61 23.93V24.43C62.61 28.72 59.61 30.63 55.29 30.63" fill="black"/>
<path d="M78.1001 30.37H69.5201V33.18C69.5201 33.2535 69.5056 33.3264 69.4774 33.3943C69.4493 33.4622 69.408 33.524 69.356 33.576C69.304 33.628 69.2423 33.6692 69.1744 33.6974C69.1064 33.7255 69.0336 33.74 68.9601 33.74H65.7501C65.6006 33.74 65.4571 33.6813 65.3505 33.5766C65.2439 33.4719 65.1827 33.3294 65.1801 33.18V27.11C65.1852 26.9623 65.2476 26.8224 65.3539 26.7198C65.4603 26.6172 65.6023 26.5599 65.7501 26.56H67.1801L69.7601 16.56C70.2901 14.44 72.2001 14 73.8201 14C75.4401 14 77.2701 14.36 77.8201 16.58L80.4301 26.58H81.8701C81.9431 26.5787 82.0157 26.5919 82.0836 26.619C82.1515 26.646 82.2133 26.6863 82.2654 26.7375C82.3176 26.7887 82.359 26.8498 82.3873 26.9172C82.4155 26.9846 82.4301 27.0569 82.4301 27.13V33.2C82.4301 33.2735 82.4156 33.3464 82.3874 33.4143C82.3593 33.4822 82.318 33.544 82.266 33.596C82.214 33.648 82.1523 33.6892 82.0844 33.7174C82.0164 33.7455 81.9436 33.76 81.8701 33.76H78.6901C78.6165 33.76 78.5437 33.7455 78.4758 33.7174C78.4078 33.6892 78.3461 33.648 78.2941 33.596C78.2421 33.544 78.2008 33.4822 78.1727 33.4143C78.1445 33.3464 78.1301 33.2735 78.1301 33.2L78.1001 30.37ZM71.7401 26.56H75.8601L73.8601 18.07C73.8601 17.96 73.8001 17.9 73.7401 17.9C73.6801 17.9 73.6601 17.96 73.6301 18.07L71.7401 26.56Z" fill="black"/>
<path d="M97.9301 23.7499H89.0001V23.7999C89.0001 25.4099 89.6801 26.8599 91.8901 26.8599C93.6601 26.8599 96.1601 26.7199 97.2801 26.6099H97.3601C97.6701 26.6099 97.8901 26.7499 97.8901 27.0599V29.1899C97.8901 29.6399 97.7801 29.8399 97.3001 29.9499C95.426 30.4328 93.4949 30.6582 91.5601 30.6199C88.1701 30.6199 84.5601 28.8299 84.5601 23.3999V21.4499C84.5601 16.9299 87.2001 14.0699 91.6601 14.0699C96.1201 14.0699 98.5901 17.2099 98.5901 21.4499V23.0799C98.5999 23.1636 98.592 23.2483 98.5669 23.3287C98.5418 23.4091 98.5001 23.4833 98.4445 23.5465C98.3888 23.6097 98.3205 23.6605 98.2439 23.6955C98.1673 23.7306 98.0843 23.7491 98.0001 23.7499H97.9301ZM94.1001 20.8299C94.1001 18.7599 93.1001 17.7199 91.5701 17.7199C90.0401 17.7199 89.0001 18.7899 89.0001 20.8299V20.9999H94.1001V20.8299Z" fill="black"/>
<path d="M111.39 30.2C110.168 30.4876 108.915 30.622 107.66 30.6C103.66 30.6 101.12 28.08 101.12 23.5V21.17C101.12 16.6 103.7 14.07 107.66 14.07C108.916 14.0596 110.168 14.2007 111.39 14.49C111.81 14.61 111.98 14.72 111.98 15.14V17.63C111.977 17.6966 111.962 17.7619 111.933 17.8223C111.905 17.8827 111.865 17.9368 111.816 17.9815C111.767 18.0262 111.709 18.0606 111.646 18.0827C111.583 18.1048 111.516 18.114 111.45 18.11H111.39C110.255 17.9736 109.113 17.9068 107.97 17.91C106.7 17.91 105.67 18.67 105.67 21.17V23.52C105.67 26.02 106.67 26.78 107.97 26.78C109.113 26.7881 110.256 26.7213 111.39 26.58C111.525 26.5744 111.656 26.6213 111.757 26.7109C111.858 26.8004 111.92 26.9256 111.93 27.06V29.55C111.93 29.96 111.76 30.09 111.34 30.2" fill="black"/>
<path d="M128.08 25.15C128.08 29.67 124.74 30.57 120.68 30.57C119.005 30.5705 117.333 30.4334 115.68 30.16C115.04 30.05 114.95 29.74 114.95 29.01V14.88C114.936 14.7409 114.977 14.6018 115.065 14.4932C115.154 14.3846 115.281 14.3151 115.42 14.3C115.459 14.2898 115.501 14.2898 115.54 14.3H118.91C119.044 14.2859 119.178 14.3254 119.283 14.4096C119.388 14.4939 119.455 14.6163 119.47 14.75C119.48 14.7928 119.48 14.8372 119.47 14.88V19.54C119.87 19.54 120.27 19.54 120.65 19.54C124.71 19.54 128.05 20.47 128.05 24.96L128.08 25.15ZM119.5 22.91V27.06C119.7 27.06 119.86 27.06 120.68 27.06C123 27.06 123.68 26.47 123.68 25.12V24.9C123.68 23.55 123.03 22.85 120.68 22.85H119.5" fill="black"/>
<path d="M145.49 13.61C145.44 13.34 145.38 13.21 145.13 13.21C144.88 13.21 144.79 13.35 144.73 13.61L141.22 29.8C141.198 29.9357 141.13 30.0599 141.029 30.1524C140.927 30.245 140.797 30.3005 140.66 30.31H136.73C136.614 30.3184 136.499 30.2815 136.409 30.2069C136.32 30.1323 136.263 30.0258 136.25 29.91V29.86C136.255 29.8134 136.255 29.7665 136.25 29.72L140.44 12.33C141.09 9.63998 143.17 9.22998 145.1 9.22998C147.03 9.22998 149.1 9.63998 149.73 12.35L153.91 29.71C153.91 29.76 153.91 29.82 153.91 29.85C153.913 29.9065 153.904 29.9629 153.885 30.0161C153.866 30.0693 153.836 30.1182 153.798 30.16C153.76 30.2018 153.714 30.2357 153.663 30.2597C153.612 30.2837 153.556 30.2974 153.5 30.3H149.5C149.363 30.2905 149.233 30.235 149.131 30.1424C149.03 30.0499 148.962 29.9257 148.94 29.79L145.49 13.61Z" fill="black"/>
<path d="M169.08 23.69H160.08C160.08 25.3 160.75 26.75 162.97 26.75C164.73 26.75 167.23 26.61 168.35 26.5H168.44C168.75 26.5 168.97 26.64 168.97 26.95V29.08C168.97 29.53 168.86 29.72 168.38 29.83C166.503 30.3155 164.569 30.5443 162.63 30.51C159.24 30.51 155.63 28.71 155.63 23.28V21.39C155.63 16.87 158.27 14.01 162.73 14.01C167.19 14.01 169.65 17.15 169.65 21.39V23C169.65 23.41 169.43 23.68 169.07 23.68L169.08 23.69ZM165.22 20.76C165.22 18.68 164.27 17.64 162.7 17.64C161.13 17.64 160.12 18.71 160.12 20.76V20.89H165.22V20.76Z" fill="black"/>
<path d="M178.45 18C177.21 18 177.21 18.59 177.21 19.43V29.73C177.21 29.8785 177.151 30.021 177.046 30.126C176.941 30.231 176.799 30.29 176.65 30.29H173.23C173.082 30.29 172.939 30.231 172.834 30.126C172.729 30.021 172.67 29.8785 172.67 29.73V19.45C172.67 16.67 173.67 14.23 178.42 14.23H181.82C181.964 14.2189 182.107 14.2652 182.218 14.3588C182.328 14.4524 182.397 14.5858 182.41 14.73V17.46C182.418 17.5974 182.373 17.7327 182.283 17.8372C182.194 17.9417 182.067 18.0073 181.93 18.02H178.45V18Z" fill="black"/>
<path d="M198.66 14.82L193.44 21.92L198.63 29.71C198.654 29.7407 198.672 29.776 198.682 29.8138C198.693 29.8516 198.695 29.8912 198.69 29.93C198.693 30.0238 198.659 30.115 198.595 30.1841C198.532 30.2532 198.444 30.2948 198.35 30.3H194.09C193.946 30.3122 193.803 30.2804 193.678 30.209C193.553 30.1375 193.452 30.0298 193.39 29.9L189.39 23.32V29.71C189.39 29.8598 189.334 30.0041 189.232 30.1136C189.129 30.2232 188.989 30.2898 188.84 30.3H185.44C185.286 30.2927 185.14 30.2282 185.031 30.1191C184.922 30.01 184.857 29.8641 184.85 29.71V14.8C184.858 14.6478 184.923 14.5042 185.032 14.3984C185.142 14.2925 185.288 14.2323 185.44 14.23H188.84C188.988 14.2352 189.128 14.2975 189.23 14.4038C189.333 14.5102 189.39 14.6522 189.39 14.8V21.08L193.66 14.65C193.738 14.527 193.846 14.4257 193.973 14.3558C194.101 14.2858 194.244 14.2494 194.39 14.25H198.39C198.65 14.25 198.82 14.39 198.82 14.56C198.814 14.6644 198.771 14.7634 198.7 14.84" fill="black"/>
<path d="M207 30.56C202.45 30.56 200 27.72 200 23.29V21.29C200 16.83 202.5 14 207 14C211.5 14 214 16.85 214 21.29V23.29C214 27.74 211.53 30.58 207 30.58V30.56ZM209.49 21.34C209.49 19.07 208.62 17.92 207 17.92C205.38 17.92 204.47 19.07 204.47 21.34V23.29C204.47 25.56 205.37 26.74 207 26.74C208.63 26.74 209.49 25.56 209.49 23.29V21.34Z" fill="black"/>
<path d="M71.93 50.43V46.67H71.76C70.8575 46.7213 69.9617 46.4868 69.2 46C68.747 45.6344 68.3816 45.1721 68.1306 44.6469C67.8796 44.1217 67.7493 43.547 67.7493 42.965C67.7493 42.3829 67.8796 41.8082 68.1306 41.283C68.3816 40.7578 68.747 40.2955 69.2 39.93C69.959 39.4334 70.8537 39.1852 71.76 39.22H71.93V35.33H74V39.17H74.17C75.0767 39.1325 75.9722 39.3809 76.73 39.88C77.183 40.2455 77.5484 40.7078 77.7995 41.233C78.0505 41.7582 78.1808 42.3329 78.1808 42.915C78.1808 43.497 78.0505 44.0717 77.7995 44.5969C77.5484 45.1221 77.183 45.5844 76.73 45.95C75.9742 46.4544 75.078 46.7065 74.17 46.67H74V50.43H71.93ZM71.93 44.85V41C71.4709 40.9648 71.0132 41.0845 70.63 41.34C70.3792 41.5167 70.1777 41.7546 70.0447 42.0312C69.9116 42.3077 69.8515 42.6136 69.87 42.92C69.8456 43.2263 69.9009 43.5338 70.0306 43.8124C70.1603 44.0911 70.3599 44.3314 70.61 44.51C71.0058 44.7535 71.4658 44.872 71.93 44.85ZM74 41V44.86C74.4622 44.8801 74.9195 44.758 75.31 44.51C75.5627 44.3332 75.7648 44.0935 75.8964 43.8147C76.0279 43.5358 76.0843 43.2273 76.06 42.92C76.0785 42.6136 76.0184 42.3077 75.8854 42.0312C75.7524 41.7546 75.5509 41.5167 75.3 41.34C74.9163 41.0859 74.459 40.9663 74 41Z" fill="#FC1F24"/>
<path d="M79.75 39.27H81.81V43.77L85.18 39.27H87.24V46.57H85.18V42.07L81.81 46.57H79.75V39.27Z" fill="#FC1F24"/>
<path d="M89.2 46.57V39.27H91.2V41.85H94.07V39.27H96.13V46.57H94.12V43.57H91.25V46.57H89.2Z" fill="#FC1F24"/>
<path d="M103.73 40.21V39.27H105.79V46.57H103.73V45.63C103.489 46.002 103.156 46.3058 102.764 46.5124C102.372 46.719 101.933 46.8215 101.49 46.81C100.987 46.8263 100.486 46.7337 100.022 46.5387C99.5574 46.3437 99.1407 46.0508 98.8 45.68C98.1364 44.9117 97.7712 43.9303 97.7712 42.915C97.7712 41.8998 98.1364 40.9184 98.8 40.15C99.1219 39.7813 99.5205 39.4873 99.9679 39.2886C100.415 39.09 100.901 38.9915 101.39 39C101.853 38.9729 102.314 39.0709 102.726 39.2839C103.138 39.4968 103.485 39.8167 103.73 40.21ZM103.36 41.45C102.972 41.0725 102.452 40.8613 101.91 40.8613C101.368 40.8613 100.848 41.0725 100.46 41.45C100.272 41.6425 100.124 41.871 100.026 42.1219C99.9281 42.3727 99.8818 42.6408 99.89 42.91C99.8825 43.1821 99.9291 43.4531 100.027 43.7071C100.125 43.9611 100.272 44.1932 100.46 44.39C100.65 44.5805 100.876 44.7316 101.125 44.8347C101.374 44.9378 101.641 44.9909 101.91 44.9909C102.179 44.9909 102.446 44.9378 102.695 44.8347C102.944 44.7316 103.17 44.5805 103.36 44.39C103.549 44.1937 103.698 43.9619 103.798 43.7079C103.897 43.4539 103.946 43.1828 103.94 42.91C103.947 42.6401 103.899 42.3716 103.799 42.1207C103.7 41.8698 103.55 41.6416 103.36 41.45Z" fill="#FC1F24"/>
<path d="M107.75 46.57V39.27H109.75V41.85H112.62V39.27H114.68V46.57H112.62V43.57H109.8V46.57H107.75Z" fill="#FC1F24"/>
<path d="M122.18 39.47V41.47C121.726 41.0443 121.122 40.8144 120.5 40.83C120.218 40.8127 119.936 40.8575 119.673 40.9612C119.411 41.0648 119.174 41.2249 118.98 41.43C118.619 41.8253 118.426 42.345 118.44 42.88C118.432 43.1563 118.481 43.4314 118.584 43.6879C118.687 43.9443 118.842 44.1766 119.04 44.37C119.241 44.5656 119.479 44.7187 119.74 44.8201C120.001 44.9215 120.28 44.9691 120.56 44.96C121.162 44.96 121.741 44.7312 122.18 44.32V46.32C121.596 46.6231 120.948 46.7809 120.29 46.78C119.25 46.8115 118.24 46.4304 117.48 45.72C117.097 45.3633 116.795 44.929 116.593 44.4462C116.391 43.9634 116.295 43.443 116.31 42.92C116.282 42.3565 116.381 41.794 116.601 41.2744C116.821 40.7549 117.156 40.2919 117.58 39.92C118.306 39.2842 119.246 38.9481 120.21 38.98C120.895 38.9911 121.569 39.1587 122.18 39.47Z" fill="#FC1F24"/>
<path d="M127.55 39C128.642 38.9319 129.717 39.2904 130.55 40C130.951 40.3603 131.269 40.8037 131.482 41.2993C131.694 41.795 131.796 42.331 131.78 42.87C131.796 43.4061 131.694 43.9391 131.481 44.4315C131.269 44.9239 130.951 45.3637 130.55 45.72C129.71 46.3877 128.668 46.7511 127.595 46.7511C126.522 46.7511 125.48 46.3877 124.64 45.72C124.239 45.3637 123.921 44.9239 123.709 44.4315C123.496 43.9391 123.394 43.4061 123.41 42.87C123.394 42.331 123.496 41.795 123.708 41.2993C123.921 40.8037 124.239 40.3603 124.64 40C125.45 39.3132 126.489 38.9562 127.55 39ZM126.08 44.34C126.272 44.5338 126.5 44.6877 126.751 44.7927C127.003 44.8977 127.273 44.9518 127.545 44.9518C127.818 44.9518 128.087 44.8977 128.339 44.7927C128.59 44.6877 128.818 44.5338 129.01 44.34C129.201 44.1504 129.351 43.9243 129.453 43.6751C129.554 43.426 129.604 43.159 129.6 42.89C129.604 42.6182 129.553 42.3483 129.452 42.096C129.351 41.8437 129.201 41.614 129.01 41.42C128.619 41.0359 128.093 40.8206 127.545 40.8206C126.997 40.8206 126.471 41.0359 126.08 41.42C125.887 41.6119 125.735 41.8413 125.633 42.0941C125.532 42.3469 125.483 42.6177 125.49 42.89C125.48 43.1656 125.528 43.4403 125.629 43.6967C125.731 43.9531 125.884 44.1858 126.08 44.38V44.34Z" fill="#FC1F24"/>
<path d="M133.31 39.27H136.53C137.142 39.2262 137.752 39.3804 138.27 39.71C138.495 39.8732 138.677 40.0886 138.801 40.3376C138.925 40.5867 138.986 40.862 138.98 41.14C138.979 41.4552 138.888 41.7636 138.72 42.03C138.538 42.3049 138.276 42.5177 137.97 42.64C138.342 42.7025 138.689 42.8689 138.97 43.12C139.155 43.293 139.3 43.5043 139.395 43.7392C139.49 43.9741 139.533 44.2269 139.52 44.48C139.532 44.7922 139.469 45.1027 139.335 45.3849C139.201 45.6671 139 45.9125 138.75 46.1C138.269 46.4311 137.693 46.5962 137.11 46.57H133.35L133.31 39.27ZM135.37 42.17H136.31C136.499 42.1785 136.686 42.1335 136.85 42.04C136.936 41.9867 137.007 41.9113 137.054 41.8217C137.102 41.732 137.125 41.6313 137.12 41.53C137.127 41.4312 137.109 41.3322 137.069 41.2416C137.029 41.151 136.968 41.0715 136.89 41.01C136.702 40.9143 136.491 40.8727 136.28 40.89H135.37V42.17ZM135.37 44.95H136.37C136.636 44.9713 136.902 44.9083 137.13 44.77C137.219 44.7007 137.291 44.6109 137.338 44.5082C137.385 44.4054 137.406 44.2928 137.4 44.18C137.407 44.0768 137.386 43.9737 137.339 43.8819C137.291 43.7901 137.219 43.7133 137.13 43.66C136.917 43.5297 136.669 43.4702 136.42 43.49H135.42L135.37 44.95Z" fill="#FC1F24"/>
<path d="M141 39.27H143.06V41.87H144.66C145.027 41.839 145.397 41.8892 145.742 42.0171C146.088 42.145 146.401 42.3474 146.66 42.61C147.042 43.0412 147.239 43.6049 147.21 44.18C147.219 44.5246 147.151 44.8669 147.011 45.1818C146.871 45.4967 146.662 45.7763 146.4 46C145.938 46.3755 145.354 46.5678 144.76 46.54H141V39.27ZM143.06 45H144.06C144.326 45.0213 144.592 44.9584 144.82 44.82C144.909 44.7508 144.98 44.6609 145.027 44.5582C145.074 44.4555 145.096 44.3429 145.09 44.23C145.097 44.1269 145.076 44.0237 145.028 43.9319C144.981 43.8401 144.909 43.7633 144.82 43.71C144.607 43.5797 144.359 43.5202 144.11 43.54H143.11L143.06 45ZM148 39.27H150V46.57H148V39.27Z" fill="#FC1F24"/>
<path d="M152 39.27H154V43.77L157.37 39.27H159.43V46.57H157.37V42.07L154 46.57H152V39.27ZM157.16 35.61L158.51 36.25C158.421 36.5378 158.276 36.8049 158.082 37.0351C157.887 37.2653 157.649 37.4541 157.38 37.59C156.875 37.8529 156.314 37.9902 155.745 37.9902C155.176 37.9902 154.615 37.8529 154.11 37.59C153.841 37.4541 153.603 37.2653 153.408 37.0351C153.214 36.8049 153.069 36.5378 152.98 36.25L154.33 35.61C154.395 35.9171 154.574 36.1884 154.83 36.37C155.094 36.5709 155.418 36.6767 155.75 36.67C156.067 36.6713 156.377 36.5772 156.64 36.4C156.897 36.2091 157.069 35.9257 157.12 35.61H157.16Z" fill="#FC1F24"/>
<path d="M170.83 39.4701V41.4701C170.373 41.0419 169.766 40.8118 169.14 40.8301C168.86 40.8136 168.579 40.8588 168.318 40.9625C168.058 41.0661 167.823 41.2257 167.63 41.4301C167.269 41.8254 167.076 42.3451 167.09 42.8801C167.082 43.1564 167.131 43.4315 167.234 43.6879C167.337 43.9444 167.493 44.1767 167.69 44.3701C167.89 44.5662 168.128 44.7196 168.39 44.821C168.651 44.9224 168.93 44.9697 169.21 44.9601C169.812 44.9601 170.391 44.7313 170.83 44.3201V46.3201C170.246 46.622 169.598 46.7798 168.94 46.7801C167.9 46.8116 166.89 46.4305 166.13 45.7201C165.765 45.3689 165.476 44.9461 165.281 44.478C165.087 44.01 164.991 43.5068 165 43.0001C164.972 42.4366 165.071 41.874 165.291 41.3545C165.511 40.835 165.846 40.3719 166.27 40.0001C166.996 39.3642 167.936 39.0282 168.9 39.0601C169.566 39.0523 170.225 39.1923 170.83 39.4701Z" fill="#FC1F24"/>
<path d="M177.66 44.23L179.55 44.53C179.467 44.7397 179.363 44.9407 179.24 45.13C179.06 45.3894 178.86 45.6336 178.64 45.86C178.327 46.1663 177.952 46.4017 177.54 46.55C177.033 46.7294 176.498 46.8175 175.96 46.81C175.45 46.8362 174.941 46.7613 174.46 46.5897C173.98 46.418 173.538 46.1531 173.16 45.81C172.771 45.4419 172.465 44.9939 172.265 44.4968C172.065 43.9998 171.975 43.4653 172 42.93C171.981 42.4014 172.069 41.8743 172.26 41.3809C172.451 40.8875 172.74 40.4381 173.11 40.06C173.479 39.719 173.912 39.4548 174.384 39.2831C174.857 39.1114 175.358 39.0356 175.86 39.06C176.395 39.0256 176.93 39.1151 177.424 39.3216C177.919 39.528 178.359 39.8457 178.71 40.25C179.339 41.0699 179.651 42.0887 179.59 43.12V43.29H174.13C174.109 43.7273 174.232 44.1594 174.48 44.52C174.649 44.7472 174.872 44.9291 175.129 45.0494C175.385 45.1698 175.667 45.225 175.95 45.21C176.299 45.2257 176.645 45.1418 176.947 44.9683C177.25 44.7948 177.497 44.5387 177.66 44.23ZM174.2 42H177.66C177.607 41.5737 177.388 41.1856 177.05 40.92C176.729 40.6651 176.33 40.5275 175.92 40.53C175.519 40.5295 175.131 40.6673 174.82 40.92C174.483 41.188 174.262 41.5742 174.2 42Z" fill="#FC1F24"/>
<path d="M183.24 45.63V50.43H181.18V39.27H183.24V40.21C183.501 39.8221 183.856 39.5072 184.273 39.2955C184.689 39.0837 185.153 38.982 185.62 39C186.081 38.9872 186.54 39.0694 186.969 39.2414C187.397 39.4135 187.786 39.6716 188.11 40C188.831 40.8036 189.23 41.8453 189.23 42.925C189.23 44.0047 188.831 45.0463 188.11 45.85C187.446 46.4956 186.556 46.8547 185.63 46.85C185.161 46.8648 184.696 46.7607 184.278 46.5474C183.86 46.3341 183.503 46.0185 183.24 45.63ZM185.06 40.86C184.572 40.8449 184.096 41.0166 183.73 41.34C183.506 41.5341 183.327 41.7757 183.208 42.0473C183.089 42.3188 183.031 42.6135 183.04 42.91C183.029 43.1793 183.073 43.448 183.169 43.6999C183.264 43.9519 183.41 44.1819 183.597 44.3762C183.783 44.5705 184.008 44.725 184.256 44.8304C184.504 44.9359 184.77 44.9902 185.04 44.99C185.554 44.9986 186.052 44.8088 186.43 44.46C186.642 44.2633 186.81 44.0229 186.92 43.7553C187.031 43.4877 187.082 43.1992 187.07 42.91C187.07 42.3795 186.859 41.8708 186.484 41.4957C186.109 41.1207 185.6 40.91 185.07 40.91L185.06 40.86Z" fill="#FC1F24"/>
<path d="M190.8 39.27H194C194.609 39.2269 195.216 39.3812 195.73 39.71C195.956 39.872 196.14 40.0872 196.263 40.3365C196.387 40.5858 196.448 40.8618 196.44 41.14C196.444 41.4559 196.353 41.7658 196.18 42.03C196.003 42.3096 195.74 42.5237 195.43 42.64C195.802 42.7025 196.149 42.8689 196.43 43.12C196.617 43.2921 196.764 43.503 196.861 43.7379C196.958 43.9729 197.002 44.2262 196.99 44.48C197.003 44.7933 196.939 45.105 196.803 45.3875C196.667 45.6701 196.463 45.9148 196.21 46.1C195.734 46.4324 195.16 46.5977 194.58 46.57H190.8V39.27ZM192.8 42.17H193.8C193.989 42.1785 194.176 42.1335 194.34 42.04C194.426 41.9867 194.497 41.9114 194.544 41.8217C194.592 41.7321 194.614 41.6314 194.61 41.53C194.617 41.4301 194.599 41.3299 194.557 41.2389C194.515 41.148 194.451 41.0692 194.37 41.01C194.183 40.9117 193.971 40.87 193.76 40.89H192.85L192.8 42.17ZM192.8 44.95H193.8C194.063 44.972 194.326 44.9089 194.55 44.77C194.639 44.7008 194.711 44.6109 194.758 44.5082C194.805 44.4055 194.826 44.2929 194.82 44.18C194.827 44.0769 194.806 43.9737 194.758 43.8819C194.711 43.7901 194.639 43.7133 194.55 43.66C194.342 43.5285 194.096 43.4688 193.85 43.49H192.85L192.8 44.95Z" fill="#FC1F24"/>
<path d="M198.49 39.27H200.49V43.77L203.87 39.27H206V46.57H203.95V42.07L200.57 46.57H198.57L198.49 39.27Z" fill="#FC1F24"/>
<path d="M213.43 39.47V41.47C212.972 41.0437 212.365 40.8139 211.74 40.83C211.458 40.8134 211.176 40.8585 210.914 40.9621C210.651 41.0658 210.414 41.2254 210.22 41.43C209.859 41.8253 209.666 42.345 209.68 42.88C209.672 43.1563 209.721 43.4314 209.824 43.6879C209.927 43.9443 210.082 44.1766 210.28 44.37C210.482 44.5659 210.722 44.7191 210.985 44.8205C211.248 44.9219 211.528 44.9693 211.81 44.96C212.411 44.958 212.99 44.7295 213.43 44.32V46.32C212.846 46.622 212.198 46.7797 211.54 46.78C210.498 46.8077 209.486 46.4273 208.72 45.72C208.34 45.3616 208.04 44.9268 207.84 44.4442C207.64 43.9616 207.545 43.4421 207.56 42.92C207.532 42.3575 207.631 41.7959 207.849 41.2766C208.067 40.7574 208.399 40.2937 208.82 39.92C209.547 39.2859 210.486 38.9501 211.45 38.98C212.139 38.9914 212.816 39.1589 213.43 39.47Z" fill="#FC1F24"/>
</g>
<defs>
<clipPath id="clip0">
<rect width="214" height="50.43" fill="white"/>
</clipPath>
</defs>
</svg>
