<svg width="32" height="37" viewBox="0 0 32 37" fill="none" xmlns="http://www.w3.org/2000/svg">
<path d="M9.39062 12.875C9.76562 10.5781 11.0078 8.9375 13.1172 7.95312C12.5547 9.3125 12.2266 10.9531 12.1328 12.875H9.39062ZM9.39062 15.125H12.1328C12.2266 17.0469 12.5547 18.6875 13.1172 20.0469C11.0078 19.0625 9.76562 17.4219 9.39062 15.125ZM16 20.6797C15.6719 20.3516 15.3203 19.6953 14.9453 18.7109C14.6172 17.7266 14.4297 16.5312 14.3828 15.125H17.6172C17.5703 16.5312 17.3594 17.7266 16.9844 18.7109C16.6562 19.6953 16.3281 20.3516 16 20.6797ZM14.3828 12.875C14.4297 11.4688 14.6172 10.2734 14.9453 9.28906C15.3203 8.30469 15.6719 7.64844 16 7.32031C16.1875 7.55469 16.3984 7.88281 16.6328 8.30469C16.8672 8.72656 17.0781 9.35938 17.2656 10.2031C17.4531 11 17.5703 11.8906 17.6172 12.875H14.3828ZM18.8828 20.0469C19.4453 18.6875 19.7734 17.0469 19.8672 15.125H22.6094C22.2344 17.4219 20.9922 19.0625 18.8828 20.0469ZM29.5 0.5C30.1094 0.5 30.625 0.734375 31.0469 1.20312C31.5156 1.625 31.75 2.14062 31.75 2.75V34.25C31.75 34.8594 31.5156 35.375 31.0469 35.7969C30.625 36.2656 30.1094 36.5 29.5 36.5H4.75C3.48438 36.5 2.40625 36.0547 1.51562 35.1641C0.671875 34.3203 0.25 33.2656 0.25 32V5C0.25 3.73438 0.671875 2.67969 1.51562 1.83594C2.40625 0.945312 3.48438 0.5 4.75 0.5H29.5ZM23.875 29.75C24.2031 29.75 24.4609 29.6562 24.6484 29.4688C24.8828 29.2344 25 28.9531 25 28.625C25 28.2969 24.8828 28.0391 24.6484 27.8516C24.4609 27.6172 24.2031 27.5 23.875 27.5H8.125C7.79688 27.5 7.51562 27.6172 7.28125 27.8516C7.09375 28.0391 7 28.2969 7 28.625C7 28.9531 7.09375 29.2344 7.28125 29.4688C7.51562 29.6562 7.79688 29.75 8.125 29.75H23.875ZM9.60156 20.3984C11.3828 22.1328 13.5156 23 16 23C18.4844 23 20.5938 22.1328 22.3281 20.3984C24.1094 18.6172 25 16.4844 25 14C25 11.5156 24.1094 9.40625 22.3281 7.67188C20.5938 5.89063 18.4844 5 16 5C13.5156 5 11.3828 5.89063 9.60156 7.67188C7.86719 9.40625 7 11.5156 7 14C7 16.4844 7.86719 18.6172 9.60156 20.3984ZM18.8828 7.95312C20.9922 8.9375 22.2344 10.5781 22.6094 12.875H19.8672C19.7734 10.9531 19.4453 9.3125 18.8828 7.95312Z" fill="#4A4A4A"/>
</svg>
